<?xml version="1.0" encoding="UTF-8"?>
<svg width="100pt" height="100pt" version="1.1" viewBox="0 0 100 100" xmlns="http://www.w3.org/2000/svg">
 <g>
  <path d="m75 10.938h-50c-0.86328 0-1.5625 0.69922-1.5625 1.5625v75c0 0.54297 0.28125 1.043 0.74219 1.3281 0.46094 0.28906 1.0391 0.30859 1.5195 0.070313l5.5508-2.7773 5.5508 2.7734c0.4375 0.21875 0.95703 0.21875 1.3984 0l5.5508-2.7734 5.5508 2.7734c0.4375 0.21875 0.95703 0.21875 1.3984 0l5.5508-2.7734 5.5508 2.7734c0.4375 0.21875 0.95703 0.21875 1.3984 0l5.5508-2.7734 5.5508 2.7734c0.22266 0.11328 0.46094 0.16797 0.69922 0.16797 0.28516 0 0.57031-0.078125 0.82031-0.23438 0.46094-0.28516 0.74219-0.78516 0.74219-1.3281v-75c0-0.86328-0.69922-1.5625-1.5625-1.5625zm-1.5625 74.035l-3.9883-1.9922c-0.4375-0.21875-0.95703-0.21875-1.3984 0l-5.5508 2.7734-5.5508-2.7734c-0.21875-0.11328-0.46094-0.16797-0.69922-0.16797s-0.48047 0.054688-0.69922 0.16406l-5.5508 2.7773-5.5508-2.7734c-0.4375-0.21875-0.95703-0.21875-1.3984 0l-5.5508 2.7734-5.5508-2.7734c-0.4375-0.21875-0.95703-0.21875-1.3984 0l-3.9883 1.9922v-70.91h46.875z"/>
  <path d="m50 48.438h-6.25c-0.86328 0-1.5625 0.69922-1.5625 1.5625s0.69922 1.5625 1.5625 1.5625h4.6875v1.5625c0 0.86328 0.69922 1.5625 1.5625 1.5625s1.5625-0.69922 1.5625-1.5625v-1.7188c3.5625-0.72656 6.25-3.8828 6.25-7.6562 0-4.3086-3.5039-7.8125-7.8125-7.8125-2.5859 0-4.6875-2.1016-4.6875-4.6875s2.1016-4.6875 4.6875-4.6875h6.25c0.86328 0 1.5625-0.69922 1.5625-1.5625s-0.69922-1.5625-1.5625-1.5625h-4.6875v-1.5625c0-0.86328-0.69922-1.5625-1.5625-1.5625s-1.5625 0.69922-1.5625 1.5625v1.7188c-3.5625 0.72656-6.25 3.8828-6.25 7.6562 0 4.3086 3.5039 7.8125 7.8125 7.8125 2.5859 0 4.6875 2.1016 4.6875 4.6875s-2.1016 4.6875-4.6875 4.6875z"/>
  <path d="m37.5 64.062h25c0.86328 0 1.5625-0.69922 1.5625-1.5625s-0.69922-1.5625-1.5625-1.5625h-25c-0.86328 0-1.5625 0.69922-1.5625 1.5625s0.69922 1.5625 1.5625 1.5625z"/>
  <path d="m37.5 73.438h25c0.86328 0 1.5625-0.69922 1.5625-1.5625s-0.69922-1.5625-1.5625-1.5625h-25c-0.86328 0-1.5625 0.69922-1.5625 1.5625s0.69922 1.5625 1.5625 1.5625z"/>
 </g>
</svg>
