<?xml version="1.0" encoding="UTF-8"?>
<svg width="100pt" height="100pt" version="1.1" viewBox="0 0 100 100" xmlns="http://www.w3.org/2000/svg">
 <path d="m94.301 91.5c0.39844 0.39844 0.60156 0.89844 0.60156 1.3984s-0.19922 1-0.60156 1.3984c-0.39844 0.39844-0.89844 0.60156-1.3984 0.60156s-1-0.19922-1.3984-0.60156l-41.605-41.496-41.5 41.5c-0.39844 0.39844-0.89844 0.59766-1.3984 0.59766s-1-0.19922-1.3984-0.60156c-0.40234-0.39844-0.60156-0.89844-0.60156-1.3984s0.19922-1 0.60156-1.3984l41.5-41.5-41.5-41.602c-0.40234-0.39844-0.60156-0.89844-0.60156-1.3984s0.19922-1 0.60156-1.3984c0.80078-0.80078 2-0.80078 2.8008 0l41.5 41.5 41.598-41.5c0.80078-0.80078 2-0.80078 2.8008 0 0.39844 0.39844 0.59766 0.89844 0.59766 1.3984s-0.19922 1-0.60156 1.3984l-41.496 41.5z"/>
</svg>
