<?xml version="1.0" encoding="UTF-8"?>
<svg width="100pt" height="100pt" version="1.1" viewBox="0 0 100 100" xmlns="http://www.w3.org/2000/svg">
 <path d="m27.969 12c-5.3516 0-9.8398 3.9062-10.797 9h-9.3633c-1.0469 0.050781-1.9531 1.0469-1.9023 2.0938s1.0469 1.957 2.0898 1.9062h9.1758c0.94531 5.1055 5.4336 9 10.797 9s9.8555-3.8945 10.797-9h53.113c1.0547 0.015625 2.0273-0.94141 2.0273-2s-0.96875-2.0156-2.0273-2h-53.113c-0.95703-5.0938-5.4453-9-10.797-9zm0 4c3.8828 0 6.9883 3.1094 6.9883 7s-3.1055 7-6.9883 7-6.9883-3.1094-6.9883-7 3.1055-7 6.9883-7zm43.938 23c-5.3516 0-9.8398 3.9062-10.797 9h-53.301c-1.0469 0.050781-1.9531 1.0469-1.9023 2.0938s1.0469 1.957 2.0898 1.9062h53.113c0.94531 5.1055 5.4336 9 10.797 9s9.8555-3.8945 10.797-9h9.1758c1.0547 0.015625 2.0273-0.94141 2.0273-2s-0.96875-2.0156-2.0273-2h-9.1758c-0.95703-5.0938-5.4453-9-10.797-9zm0 4c3.8828 0 6.9883 3.1094 6.9883 7s-3.1055 7-6.9883 7-6.9883-3.1094-6.9883-7 3.1055-7 6.9883-7zm-43.938 23c-5.3516 0-9.8398 3.9062-10.797 9h-9.3633c-1.0469 0.050781-1.9531 1.0469-1.9023 2.0938s1.0469 1.957 2.0898 1.9062h9.1758c0.94531 5.1055 5.4336 9 10.797 9s9.8555-3.8945 10.797-9h22.156c1.0547 0.015625 2.0273-0.94141 2.0273-2s-0.96875-2.0156-2.0273-2h-22.156c-0.95703-5.0938-5.4453-9-10.797-9zm0 4c3.8828 0 6.9883 3.1094 6.9883 7s-3.1055 7-6.9883 7-6.9883-3.1094-6.9883-7 3.1055-7 6.9883-7zm40.754 5c-1.0469 0.050781-1.9531 1.0469-1.9023 2.0938 0.050782 1.0469 1.0469 1.957 2.0898 1.9062h22.969c1.0547 0.015625 2.0273-0.94141 2.0273-2s-0.96875-2.0156-2.0273-2h-23.156z"/>
</svg>
