<?xml version="1.0" encoding="UTF-8"?>
<svg width="100pt" height="100pt" version="1.1" viewBox="0 0 100 100" xmlns="http://www.w3.org/2000/svg">
 <path d="m51.621 41.352c1.8516-5.6211 0.55078-12.059-3.9102-16.52-4.3398-4.3398-10.551-5.6719-16.059-4.0312 0 0-2.2305 0.71094-3.6094 2.0391l9.3984 9.3984-0.44141 4.5781-4.5781 0.42969-9.3984-9.3984c-1.3086 1.3086-2.1406 3.5195-2.1406 3.5195-1.7578 5.5703-0.46094 11.91 3.9492 16.32 4.4609 4.4609 10.879 5.7578 16.5 3.9219l26.801 26.801c0.96875 0.96875 2.2617 1.4609 3.5391 1.4609 1.2695 0 2.5586-0.48828 3.5391-1.4609l3.1992-3.1992c0.96875-0.96875 1.4609-2.2617 1.4609-3.5391 0-1.2695-0.48828-2.5586-1.4609-3.5391zm23.957 31.039l-3.1992 3.1992c-0.19141 0.19141-0.44141 0.28906-0.71094 0.28906s-0.50781-0.10156-0.71094-0.28906l-28.719-28.73c-4.6406 2.6094-10.621 1.9609-14.57-1.9883-2.7812-2.7812-3.9219-6.5508-3.4492-10.172l6.7109 6.7109 9.7383-0.92188 0.92188-9.75-6.5703-6.5703c3.5195-0.37109 7.1602 0.78906 9.8594 3.4883 3.9492 3.9492 4.6016 9.9297 1.9883 14.57l0.007812 0.007813-0.019531 0.019531 28.719 28.719c0.19141 0.19141 0.28906 0.44141 0.28906 0.71094 0 0.26172-0.10156 0.5-0.28906 0.69922z"/>
</svg>
