<?xml version="1.0" encoding="UTF-8"?>
<svg width="100pt" height="100pt" version="1.1" viewBox="0 0 100 100" xmlns="http://www.w3.org/2000/svg">
 <g>
  <path d="m42.898 80c0 3.8008 3.1992 7.1016 7 7.1016 3.8008 0 7-3.1992 7-7.1016 0-3.8008-3.1992-7.1016-7-7.1016-3.7969 0.10156-7 3.3008-7 7.1016z"/>
  <path d="m42.898 50c0 3.8008 3.1992 7.1016 7 7.1016 3.8008 0 7-3.1992 7-7.1016 0-3.8008-3.1992-7.1016-7-7.1016-3.7969 0.10156-7 3.3008-7 7.1016z"/>
  <path d="m42.898 20c0 3.8008 3.1992 7.1016 7 7.1016 3.8008 0 7-3.1992 7-7.1016 0-3.8008-3.1992-7.1016-7-7.1016-3.7969 0.10156-7 3.3008-7 7.1016z"/>
 </g>
</svg>
