<?xml version="1.0" encoding="UTF-8"?>
<svg width="100pt" height="100pt" version="1.1" viewBox="0 0 100 100" xmlns="http://www.w3.org/2000/svg">
 <path d="m75 6c11.582 0 21 9.418 21 21s-9.418 21-21 21h-50c-11.582 0-21-9.418-21-21s9.418-21 21-21zm0 6c-8.3203 0-15 6.6797-15 15s6.6797 15 15 15c8.3633 0 15-6.6367 15-15s-6.6367-15-15-15zm-14.656 0h-35.344c-8.3633 0-15 6.6367-15 15s6.6367 15 15 15h35.344c-3.9062-3.8164-6.3438-9.1328-6.3438-15s2.4375-11.184 6.3438-15zm14.656 40c11.582 0 21 9.418 21 21s-9.418 21-21 21h-50c-11.582 0-21-9.418-21-21s9.418-21 21-21zm0 6h-35.344c3.9062 3.8164 6.3438 9.1328 6.3438 15s-2.4375 11.184-6.3438 15h35.344c8.3633 0 15-6.6367 15-15s-6.6367-15-15-15zm-50 0c-8.3633 0-15 6.6367-15 15s6.6367 15 15 15c8.3203 0 15-6.6797 15-15s-6.6797-15-15-15z"/>
</svg>
