<?xml version="1.0" encoding="UTF-8"?>
<svg width="100pt" height="100pt" version="1.1" viewBox="0 0 100 100" xmlns="http://www.w3.org/2000/svg">
 <path d="m20.832 75.633c-4.5391-2.6602-8.1406-6.2578-10.797-10.797-2.6602-4.5391-3.9883-9.4844-3.9883-14.836s1.3281-10.297 3.9883-14.836c2.6602-4.5391 6.2578-8.1367 10.797-10.797 4.5391-2.6562 9.4844-3.9883 14.836-3.9883h28.668c5.3516 0 10.297 1.332 14.836 3.9883 4.5391 2.6602 8.1367 6.2617 10.797 10.797 2.6602 4.5391 3.9883 9.4844 3.9883 14.836s-1.332 10.297-3.9883 14.836c-2.6602 4.5391-6.2578 8.1367-10.797 10.797-4.5391 2.6602-9.4844 3.9883-14.836 3.9883h-28.668c-5.3516 0-10.297-1.3281-14.836-3.9883zm43.504 0.16797c4.6836 0 8.9961-1.1562 12.945-3.4648 3.9492-2.3086 7.0781-5.4375 9.3906-9.3906 2.3086-3.9492 3.4648-8.2656 3.4648-12.945 0-4.6836-1.1562-8.9961-3.4648-12.945-2.3125-3.9492-5.4375-7.0781-9.3906-9.3906-3.9492-2.3086-8.2656-3.4648-12.945-3.4648h-28.668c-4.6836 0-9 1.1562-12.949 3.4648-3.9492 2.3086-7.0781 5.4375-9.3867 9.3906-2.3125 3.9492-3.4648 8.2617-3.4648 12.945s1.1523 9 3.4648 12.945c2.3086 3.9492 5.4375 7.0781 9.3867 9.3906 3.9492 2.3086 8.2656 3.4648 12.949 3.4648zm-8.625-10.918c-2.6289-1.5469-4.7148-3.6328-6.2578-6.2578-1.5469-2.6289-2.3164-5.5039-2.3164-8.625s0.76953-5.9961 2.3164-8.6211c1.543-2.6289 3.6328-4.7148 6.2578-6.2617 2.6289-1.5469 5.5039-2.3164 8.625-2.3164 3.1211 0 5.9961 0.76953 8.6211 2.3164 2.6289 1.5469 4.7148 3.6328 6.2578 6.2617 1.5469 2.6289 2.3164 5.5039 2.3164 8.6211 0 3.1211-0.77344 5.9961-2.3164 8.625-1.5469 2.6289-3.6328 4.7148-6.2578 6.2578-2.6289 1.5469-5.5039 2.3164-8.6211 2.3164-3.125 0-6-0.76953-8.625-2.3164zm15.336-3.2969c2.0547-1.1914 3.6797-2.8164 4.875-4.8711 1.1953-2.0547 1.7891-4.2891 1.7891-6.7148 0-2.4219-0.59766-4.6562-1.7891-6.7148-1.1953-2.0547-2.8203-3.6797-4.875-4.8711-2.0547-1.1953-4.293-1.7891-6.7109-1.7891-2.4219 0-4.6602 0.59766-6.7148 1.7891-2.0547 1.1953-3.6797 2.8164-4.875 4.8711-1.1914 2.0586-1.7891 4.293-1.7891 6.7148s0.59766 4.6562 1.7891 6.7148c1.1953 2.0547 2.8203 3.6797 4.875 4.8711 2.0547 1.1953 4.2891 1.793 6.7148 1.793 2.418 0 4.6562-0.59766 6.7109-1.793z"/>
</svg>
