<?xml version="1.0" encoding="UTF-8"?>
<svg width="100pt" height="100pt" version="1.1" viewBox="0 0 100 100" xmlns="http://www.w3.org/2000/svg">
 <g fill-rule="evenodd">
  <path d="m49.965 91.668c-23.02 0-41.633-18.617-41.633-41.637 0-23.09 18.613-41.699 41.633-41.699 23.09 0 41.703 18.609 41.703 41.699 0 23.02-18.613 41.637-41.703 41.637zm0.003906-4.168c20.777 0 37.531-16.754 37.531-37.473 0-20.777-16.754-37.527-37.531-37.527-20.715 0-37.469 16.75-37.469 37.527 0 20.719 16.754 37.473 37.469 37.473z"/>
  <path d="m41.746 41.414c0.42578-5.1328 4.0508-8.3828 9.2773-8.3828 5.2617 0 8.5352 3.3477 8.5352 7.9609 0 3.5078-2.4336 5.7852-6.5156 8.4805-4.5742 2.957-5.6367 5.6836-5.6016 9.9727v3.0547h4.3438v-2.4375c0-3.6055 0.375-5.457 4.6562-8.1875 4.4727-2.8594 7.7266-6.2695 7.7266-11.078 0-6.6289-5.1055-11.629-12.98-11.629-8.4258 0-13.297 5.3594-13.688 12.246zm8.2539 30.461c1.7773 0 3.125-1.3828 3.125-3.125 0-1.7773-1.3477-3.125-3.125-3.125-1.7422 0-3.125 1.3477-3.125 3.125 0 1.7422 1.3828 3.125 3.125 3.125z"/>
 </g>
</svg>
