<?xml version="1.0" encoding="UTF-8"?>
<svg fill="#FFFFFF" width="100pt" height="100pt" version="1.1" viewBox="0 0 100 100" xmlns="http://www.w3.org/2000/svg">
 <g>
  <path d="m55.898 10.184 18.242 18.246 18.242-18.246z"/>
  <path d="m93.488 47.773v-36.484l-18.242 18.246z"/>
  <path d="m54.352 10.848-18.676 56.047 37.359-37.359z"/>
  <path d="m74.141 30.637-37.359 37.359 56.043-18.676z"/>
  <path d="m18.121 86.66c2.2539-2.2539 2.3711-4.4727 2.4727-6.4297 0.10156-1.9219 0.1875-3.5781 2.0195-5.4062 1.8281-1.8281 3.4844-1.9141 5.4023-2.0156 1.9102-0.10156 4.0703-0.22656 6.2695-2.3281l-1.0703-1.1328c-1.7773 1.707-3.4062 1.8047-5.2812 1.9023-1.957 0.10156-4.1758 0.21875-6.4297 2.4688-2.2539 2.2539-2.3711 4.4727-2.4727 6.4297-0.10156 1.918-0.1875 3.5781-2.0195 5.4062-1.8281 1.8281-3.4883 1.918-5.4062 2.0195-1.957 0.10156-4.1758 0.21875-6.4297 2.4727-0.30469 0.30469-0.30469 0.80078 0 1.1055 0.15234 0.15234 0.35156 0.23047 0.55078 0.23047 0.19922 0 0.39844-0.074218 0.55078-0.23047 1.8281-1.832 3.4883-1.918 5.4062-2.0195 1.9648-0.10547 4.1836-0.22266 6.4375-2.4727z"/>
 </g>
</svg>
