<?xml version="1.0" encoding="UTF-8"?>
<svg width="100pt" height="100pt" version="1.1" viewBox="0 0 100 100" xmlns="http://www.w3.org/2000/svg">
 <g fill="none" stroke="#000" stroke-linecap="round" stroke-linejoin="round">
  <path transform="scale(4.1667)" d="m5.5003 5.5003h12v15h-12z"/>
  <path transform="matrix(-4.1667 5.1e-16 -5.1e-16 -4.1667 79.125 66.667)" d="m9.4903 7.4997h0.010313v1.0003h-0.010313z"/>
  <path transform="matrix(-4.1667 5.1e-16 -5.1e-16 -4.1667 95.792 66.667)" d="m11.49 7.4997h0.010313v1.0003h-0.010313z"/>
  <path transform="matrix(-4.1667 5.1e-16 -5.1e-16 -4.1667 112.46 66.667)" d="m13.49 7.4997h0.010312v1.0003h-0.010312z"/>
  <path transform="matrix(-4.1667 5.1e-16 -5.1e-16 -4.1667 79.125 116.67)" d="m9.4903 13.5h0.010313v1.0003h-0.010313z"/>
  <path transform="matrix(-4.1667 5.1e-16 -5.1e-16 -4.1667 95.792 116.67)" d="m11.49 13.5h0.010313v1.0003h-0.010313z"/>
  <path transform="matrix(-4.1667 5.1e-16 -5.1e-16 -4.1667 112.46 116.67)" d="m13.49 13.5h0.010312v1.0003h-0.010312z"/>
  <path transform="matrix(-4.1667 5.1e-16 -5.1e-16 -4.1667 79.125 91.667)" d="m9.4903 10.5h0.010313v1.0003h-0.010313z"/>
  <path transform="matrix(-4.1667 5.1e-16 -5.1e-16 -4.1667 62.458 66.667)" d="m7.49 7.4997h0.010312v1.0003h-0.010312z"/>
  <path transform="matrix(-4.1667 5.1e-16 -5.1e-16 -4.1667 62.458 116.67)" d="m7.49 13.5h0.010312v1.0003h-0.010312z"/>
  <path transform="matrix(-4.1667 5.1e-16 -5.1e-16 -4.1667 62.458 91.667)" d="m7.49 10.5h0.010312v1.0003h-0.010312z"/>
  <path transform="matrix(-4.1667 5.1e-16 -5.1e-16 -4.1667 129.12 66.667)" d="m15.49 7.4997h0.010313v1.0003h-0.010313z"/>
  <path transform="matrix(-4.1667 5.1e-16 -5.1e-16 -4.1667 129.12 116.67)" d="m15.49 13.5h0.010313v1.0003h-0.010313z"/>
  <path transform="matrix(-4.1667 5.1e-16 -5.1e-16 -4.1667 62.458 141.67)" d="m7.49 16.5h0.010312v1.0003h-0.010312z"/>
  <path transform="matrix(-4.1667 5.1e-16 -5.1e-16 -4.1667 129.12 141.67)" d="m15.49 16.5h0.010313v1.0003h-0.010313z"/>
  <path transform="matrix(-4.1667 5.1e-16 -5.1e-16 -4.1667 129.12 91.667)" d="m15.49 10.5h0.010313v1.0003h-0.010313z"/>
  <path transform="matrix(-4.1667 5.1e-16 -5.1e-16 -4.1667 95.792 91.667)" d="m11.49 10.5h0.010313v1.0003h-0.010313z"/>
  <path transform="matrix(-4.1667 5.1e-16 -5.1e-16 -4.1667 112.46 91.667)" d="m13.49 10.5h0.010312v1.0003h-0.010312z"/>
  <path transform="scale(4.1667)" d="m9.4997 16.5h4.0003v4.0003h-4.0003z"/>
  <path transform="scale(4.1667)" d="m3.4997 20.5h16"/>
  <path transform="scale(4.1667)" d="m11.5 1.5v1.9997"/>
  <path transform="scale(4.1667)" d="m6.4997 3.4997h10v1.9997h-10z"/>
 </g>
</svg>
