<?xml version="1.0" encoding="UTF-8"?>
<svg width="100pt" height="100pt" version="1.1" viewBox="0 0 100 100" xmlns="http://www.w3.org/2000/svg">
 <g>
  <path d="m50 49.781c10.953 0 19.863-8.9102 19.863-19.863s-8.9102-19.863-19.863-19.863-19.863 8.9102-19.863 19.863 8.9102 19.863 19.863 19.863zm0-3.8828c-3.5586 0-6.8359-1.1836-9.4961-3.1562 1.2266-2.4727 3.7773-4.1133 6.5898-4.1133h5.7539c2.8281 0 5.3906 1.6523 6.6172 4.1367-2.6523 1.957-5.9219 3.1328-9.4648 3.1328zm-4.7305-18.125c0-2.6094 2.1211-4.7305 4.7305-4.7305s4.7305 2.1211 4.7305 4.7305c0 2.6094-2.1211 4.7305-4.7305 4.7305-2.6094 0.003906-4.7305-2.1211-4.7305-4.7305zm4.7305-13.836c8.8125 0 15.98 7.168 15.98 15.98 0 3.832-1.3555 7.3477-3.6133 10.105-1.6836-2.6602-4.4375-4.5391-7.5625-5.0977 2.2969-1.5508 3.8086-4.1758 3.8086-7.1484 0-4.75-3.8633-8.6172-8.6172-8.6172-4.75 0-8.6172 3.8633-8.6172 8.6172 0 2.9688 1.5078 5.5898 3.7969 7.1406-3.125 0.55078-5.8828 2.418-7.5742 5.0742-2.2422-2.75-3.5898-6.2578-3.5898-10.074 0.007812-8.8125 7.1758-15.98 15.988-15.98z"/>
  <path d="m24.863 89.949c10.953 0 19.863-8.9102 19.863-19.863 0-10.953-8.9102-19.863-19.863-19.863-10.953-0.003906-19.863 8.9062-19.863 19.863 0 10.949 8.9102 19.863 19.863 19.863zm0-3.8867c-3.5586 0-6.8359-1.1836-9.4922-3.1562 1.2266-2.4688 3.7773-4.1133 6.5898-4.1133h5.7539c2.8281 0 5.3906 1.6523 6.6172 4.1328-2.6562 1.9648-5.9219 3.1367-9.4688 3.1367zm-4.7305-18.121c0-2.6094 2.1211-4.7305 4.7305-4.7305s4.7305 2.1211 4.7305 4.7305-2.1211 4.7305-4.7305 4.7305-4.7305-2.1211-4.7305-4.7305zm4.7305-13.84c8.8125 0 15.98 7.168 15.98 15.98 0 3.832-1.3555 7.3477-3.6133 10.105-1.6836-2.6602-4.4375-4.5391-7.5625-5.0977 2.2969-1.5508 3.8125-4.1758 3.8125-7.1484 0-4.75-3.8633-8.6172-8.6172-8.6172-4.75 0-8.6172 3.8633-8.6172 8.6172 0 2.9688 1.5078 5.5898 3.7969 7.1406-3.125 0.55078-5.8828 2.418-7.5742 5.0742-2.2422-2.75-3.5898-6.2578-3.5898-10.074 0.003906-8.8086 7.1758-15.98 15.984-15.98z"/>
  <path d="m55.27 70.086c0 10.953 8.9102 19.863 19.863 19.863 10.957 0 19.867-8.9141 19.867-19.863 0-10.953-8.9102-19.863-19.863-19.863-10.953-0.003906-19.867 8.9062-19.867 19.863zm19.867 15.977c-3.5586 0-6.8359-1.1836-9.4961-3.1562 1.2266-2.4688 3.7773-4.1133 6.5898-4.1133h5.7539c2.8281 0 5.3906 1.6523 6.6133 4.1328-2.6523 1.9648-5.918 3.1367-9.4609 3.1367zm-4.7344-18.121c0-2.6094 2.1211-4.7305 4.7305-4.7305 2.6094 0 4.7305 2.1211 4.7305 4.7305s-2.1211 4.7305-4.7305 4.7305c-2.6055 0-4.7305-2.1211-4.7305-4.7305zm4.7344-13.84c8.8125 0 15.98 7.168 15.98 15.98 0 3.8281-1.3555 7.3477-3.6133 10.105-1.6836-2.6602-4.4375-4.5391-7.5625-5.0977 2.2969-1.5508 3.8125-4.1758 3.8125-7.1484 0-4.75-3.8633-8.6172-8.6172-8.6172-4.75 0-8.6172 3.8633-8.6172 8.6172 0 2.9688 1.5078 5.5898 3.7969 7.1406-3.125 0.55078-5.8828 2.418-7.5742 5.0742-2.2422-2.75-3.5898-6.2578-3.5898-10.074 0-8.8086 7.1719-15.98 15.984-15.98z"/>
 </g>
</svg>
