<?xml version="1.0" encoding="UTF-8"?>
<svg width="100pt" height="100pt" version="1.1" viewBox="0 0 100 100" xmlns="http://www.w3.org/2000/svg">
 <path d="m50 7.1992c-16.699 0-30.199 13.5-30.199 30.199 0 7.8984 3.1016 15.199 8.1016 20.602 0.10156 0.19922 0.19922 0.30078 0.39844 0.39844 5.5 5.6992 13.199 9.1992 21.699 9.1992 16.699 0 30.199-13.5 30.199-30.199 0-16.699-13.5-30.199-30.199-30.199zm-16.199 50.402c7-2.3984 9.8008-5.3008 11-7.3984 1.3984 0.60156 3 0.89844 4.6992 0.89844h0.10156 0.19922 0.10156c1.8984 0 3.6016-0.39844 5.1016-1 1.1016 2.1016 4 5.1016 11.102 7.5-4.3984 3.6016-10.102 5.6992-16.199 5.6992-6.0078 0-11.707-2.1016-16.105-5.6992zm22-13.203c-1.5 1.6016-3.3984 2.3984-6 2.5h-0.10156c-2.6016 0-4.5-0.80078-6-2.5-3.8008-4.1992-2.8984-12.398-2.8984-12.5v-0.10156c0.39844-8.3984 6.1992-9.3008 8.6992-9.3008h0.19922 0.19922 0.19922c2.5 0 8.3008 0.89844 8.6992 9.3008v0.10156c-0.097656 0.10156 0.80469 8.3008-2.9961 12.5zm13.898 9.9023c-9.3008-2.8008-10.801-6-11-6.6992 0.10156-0.10156 0.19922-0.30078 0.39844-0.39844 4.8008-5.5 4.1016-14.699 4-15.699-0.5-9.8008-7.3008-13.301-12.898-13.301h-0.30078-0.30078c-5.6992 0-12.5 3.5-12.898 13.301-0.10156 1-0.89844 10.199 4 15.699 0.19922 0.30078 0.5 0.5 0.69922 0.69922-0.5 1-2.6016 3.8008-10.898 6.3008-4.1016-4.5039-6.5-10.402-6.5-16.805 0-14.301 11.602-26 26-26 14.301 0 26 11.602 26 26 0 6.4023-2.3984 12.301-6.3008 16.902zm4.1992 24.398c0 1.1992-1 2.1016-2.1016 2.1016h-43.496c-1.1992 0-2.1016-1-2.1016-2.1016 0-1.1992 1-2.1016 2.1016-2.1016h43.5c1.0977 0.003906 2.0977 0.90234 2.0977 2.1016zm-7.6992 12c0 1.1992-1 2.1016-2.1016 2.1016h-28.199c-1.1992 0-2.1016-1-2.1016-2.1016 0-1.1016 1-2.1016 2.1016-2.1016h28.199c1.2031 0.003906 2.1016 0.90234 2.1016 2.1016z"/>
</svg>
