<?xml version="1.0" encoding="UTF-8"?>
<svg width="100pt" height="100pt" version="1.1" viewBox="0 0 100 100" xmlns="http://www.w3.org/2000/svg">
 <g>
  <path d="m86.898 13.898c-5.1016-5-29.5 5.6016-45 19.102-7-3.1016-16.301-0.80078-23.301 5.8984h0.003906c-1.8359 1.6406-3.3867 3.5625-4.6016 5.7031-0.35547 0.61328-0.35938 1.3672-0.007812 1.9844 0.34766 0.61719 1 1.0039 1.707 1.0156l1-0.30078c4.6016-2.6016 9.5-3.1992 13.398-1.6992h0.003906c-2.875 3.6445-5.1367 7.7305-6.7031 12.098-0.21484 0.70703-0.023438 1.4766 0.5 2l0.60156 0.60156c-0.95703 0.53906-1.832 1.2109-2.6016 2-4.2969 4.1992-9.5977 20.699-10.199 22.5-0.19141 0.60547-0.082031 1.2656 0.29297 1.7773 0.375 0.51562 0.97266 0.82031 1.6094 0.82031h0.5c1.8984-0.5 18.5-5.3008 22.898-9.3984 0.80859-0.80859 1.5156-1.7148 2.1016-2.6992 0.33203 0.29297 0.75391 0.47266 1.1992 0.5h0.69922c4.4375-1.4375 8.6211-3.5664 12.398-6.3008 1.6016 4.1016 1 9.3008-1.8984 14-0.40625 0.77344-0.26172 1.7227 0.35547 2.3438 0.62109 0.61719 1.5703 0.76172 2.3438 0.35547 2.0391-1.1562 3.9219-2.5664 5.6016-4.1992 7.1992-7 9.6992-16.602 6.5-23.898 12.699-13.301 22-31.402 22.098-39.703 0.12891-1.6406-0.41016-3.2617-1.5-4.5zm-64.898 27.301c5.1016-4.6016 11.5-6.5 16.602-5.1016-2.1328 2.1328-4.1016 4.2344-5.8984 6.3008h-0.003906c-3.3555-1.5-7.0938-1.918-10.699-1.1992zm12.301 33.902c-2.5 2.3008-11.602 5.5-17.602 7.3008 2-5.8984 5.5-14.898 7.8984-17.301h0.003906c0.79297-0.79297 1.7461-1.4062 2.7969-1.8008l8.8008 9c-0.45703 1.0391-1.1016 1.9883-1.8984 2.8008zm23.5 3.1992c0.89062-3.7852 0.50391-7.7578-1.1016-11.301 2.1328-1.668 4.3008-3.5664 6.5-5.6992 1.5 5.1992-0.59766 11.898-5.3984 17zm3.1992-20.402c-8.6992 8.3984-15.5 12-20 13.602l-13.398-13.602c1.6016-4.3008 5.5-10.898 14.301-19.398 16.398-15.898 39.398-23.602 42.199-21.801 0.28125 0.51953 0.38672 1.1172 0.29688 1.6992-0.097657 6.9023-9.1992 25.703-23.398 39.5z"/>
  <path d="m59.398 31.898c-3.9102 0.003906-7.2773 2.7695-8.0391 6.6055-0.76172 3.8359 1.293 7.6758 4.9102 9.1719 3.6133 1.4961 7.7812 0.23047 9.9531-3.0234s1.7461-7.5859-1.0234-10.352c-1.5391-1.5391-3.625-2.4023-5.8008-2.4023zm3 11.199v0.003906c-1.207 1.1836-3.0078 1.5273-4.5664 0.87109-1.5586-0.65625-2.5703-2.1836-2.5703-3.8711 0-1.6914 1.0117-3.2188 2.5703-3.875 1.5586-0.65234 3.3594-0.30859 4.5664 0.875 0.80859 0.78906 1.2617 1.8711 1.2617 3 0 1.1289-0.45312 2.207-1.2617 3z"/>
 </g>
</svg>
